<svg xmlns="http://www.w3.org/2000/svg" xmlns:xlink="http://www.w3.org/1999/xlink" contentStyleType="text/css" data-diagram-type="CLASS" height="739px" preserveAspectRatio="none" style="width:980px;height:739px;background:#FFFFFF;" version="1.1" viewBox="0 0 980 739" width="980px" zoomAndPan="magnify"><title>Diagrama de clases del modelo de "BuscaTuProfe" &#129489;&#8205;&#127979;</title><defs/><g><g class="title" data-source-line="1"><text fill="#000000" font-family="sans-serif" font-size="14" font-weight="bold" lengthAdjust="spacing" textLength="420.5811" x="273.1234" y="22.9951">Diagrama de clases del modelo de "BuscaTuProfe" &#129489;&#8205;&#127979;</text></g><!--class Duracion--><g class="entity" data-entity="Duracion" data-source-line="14" data-uid="ent0002" id="entity_Duracion"><rect fill="#FDFDFD" height="227.2656" rx="2.5" ry="2.5" style="stroke:#555555;stroke-width:0.5;" width="160.6406" x="7" y="504.7469"/><ellipse cx="51.5635" cy="520.7469" fill="#EB937F" rx="11" ry="11" style="stroke:#181818;stroke-width:1;"/><path d="M55.6729,526.7469 L47.9541,526.7469 L47.9541,514.3563 L55.6729,514.3563 L55.6729,516.5125 L50.4072,516.5125 L50.4072,519.1844 L55.1729,519.1844 L55.1729,521.3406 L50.4072,521.3406 L50.4072,524.5906 L55.6729,524.5906 L55.6729,526.7469 Z " fill="#000000"/><text fill="#111111" font-family="sans-serif" font-size="14" lengthAdjust="spacing" textLength="63.0137" x="72.0635" y="525.5936">Duracion</text><line style="stroke:#555555;stroke-width:0.5;" x1="8" x2="166.6406" y1="536.7469" y2="536.7469"/><text fill="#000000" font-family="sans-serif" font-size="14" lengthAdjust="spacing" textLength="91.7656" x="13" y="553.742">"30 minutos"</text><text fill="#000000" font-family="sans-serif" font-size="14" lengthAdjust="spacing" textLength="91.7656" x="13" y="570.0389">"45 minutos"</text><text fill="#000000" font-family="sans-serif" font-size="14" lengthAdjust="spacing" textLength="58.0098" x="13" y="586.3357">"1 hora"</text><text fill="#000000" font-family="sans-serif" font-size="14" lengthAdjust="spacing" textLength="141.3467" x="13" y="602.6326">"1 hora 15 minutos"</text><text fill="#000000" font-family="sans-serif" font-size="14" lengthAdjust="spacing" textLength="141.3467" x="13" y="618.9295">"1 hora 30 minutos"</text><text fill="#000000" font-family="sans-serif" font-size="14" lengthAdjust="spacing" textLength="141.3467" x="13" y="635.2264">"1 hora 45 minutos"</text><text fill="#000000" font-family="sans-serif" font-size="14" lengthAdjust="spacing" textLength="65.3037" x="13" y="651.5232">"2 horas"</text><text fill="#000000" font-family="sans-serif" font-size="14" lengthAdjust="spacing" textLength="148.6406" x="13" y="667.8201">"2 horas 15 minutos"</text><text fill="#000000" font-family="sans-serif" font-size="14" lengthAdjust="spacing" textLength="148.6406" x="13" y="684.117">"2 horas 30 minutos"</text><text fill="#000000" font-family="sans-serif" font-size="14" lengthAdjust="spacing" textLength="148.6406" x="13" y="700.4139">"2 horas 45 minutos"</text><text fill="#000000" font-family="sans-serif" font-size="14" lengthAdjust="spacing" textLength="65.3037" x="13" y="716.7107">"3 horas"</text><line style="stroke:#555555;stroke-width:0.5;" x1="8" x2="166.6406" y1="724.0125" y2="724.0125"/></g><!--class Modalidad--><g class="entity" data-entity="Modalidad" data-source-line="28" data-uid="ent0003" id="entity_Modalidad"><rect fill="#FDFDFD" height="96.8906" rx="2.5" ry="2.5" style="stroke:#555555;stroke-width:0.5;" width="146.8867" x="202.88" y="569.9369"/><ellipse cx="237.07" cy="585.9369" fill="#EB937F" rx="11" ry="11" style="stroke:#181818;stroke-width:1;"/><path d="M241.1794,591.9369 L233.4607,591.9369 L233.4607,579.5463 L241.1794,579.5463 L241.1794,581.7025 L235.9138,581.7025 L235.9138,584.3744 L240.6794,584.3744 L240.6794,586.5306 L235.9138,586.5306 L235.9138,589.7806 L241.1794,589.7806 L241.1794,591.9369 Z " fill="#000000"/><text fill="#111111" font-family="sans-serif" font-size="14" lengthAdjust="spacing" textLength="72.2422" x="255.3345" y="590.7836">Modalidad</text><line style="stroke:#555555;stroke-width:0.5;" x1="203.88" x2="348.7667" y1="601.9369" y2="601.9369"/><text fill="#000000" font-family="sans-serif" font-size="14" lengthAdjust="spacing" textLength="46.0537" x="208.88" y="618.932">Virtual</text><text fill="#000000" font-family="sans-serif" font-size="14" lengthAdjust="spacing" textLength="71.6475" x="208.88" y="635.2289">Presencial</text><text fill="#000000" font-family="sans-serif" font-size="14" lengthAdjust="spacing" textLength="134.8867" x="208.88" y="651.5257">Presencial y Virtual</text><line style="stroke:#555555;stroke-width:0.5;" x1="203.88" x2="348.7667" y1="658.8275" y2="658.8275"/></g><!--class Nivel--><g class="entity" data-entity="Nivel" data-source-line="34" data-uid="ent0004" id="entity_Nivel"><rect fill="#FDFDFD" height="162.0781" rx="2.5" ry="2.5" style="stroke:#555555;stroke-width:0.5;" width="132.832" x="384.9" y="537.3469"/><ellipse cx="429.4908" cy="553.3469" fill="#EB937F" rx="11" ry="11" style="stroke:#181818;stroke-width:1;"/><path d="M433.6002,559.3469 L425.8814,559.3469 L425.8814,546.9563 L433.6002,546.9563 L433.6002,549.1125 L428.3346,549.1125 L428.3346,551.7844 L433.1002,551.7844 L433.1002,553.9406 L428.3346,553.9406 L428.3346,557.1906 L433.6002,557.1906 L433.6002,559.3469 Z " fill="#000000"/><text fill="#111111" font-family="sans-serif" font-size="14" lengthAdjust="spacing" textLength="35.1504" x="449.9908" y="558.1936">Nivel</text><line style="stroke:#555555;stroke-width:0.5;" x1="385.9" x2="516.732" y1="569.3469" y2="569.3469"/><text fill="#000000" font-family="sans-serif" font-size="14" lengthAdjust="spacing" textLength="58.5293" x="390.9" y="586.342">Primaria</text><text fill="#000000" font-family="sans-serif" font-size="14" lengthAdjust="spacing" textLength="78.6338" x="390.9" y="602.6389">Secundaria</text><text fill="#000000" font-family="sans-serif" font-size="14" lengthAdjust="spacing" textLength="111.9385" x="390.9" y="618.9357">PreUniversitario</text><text fill="#000000" font-family="sans-serif" font-size="14" lengthAdjust="spacing" textLength="89.127" x="390.9" y="635.2326">Universitario</text><text fill="#000000" font-family="sans-serif" font-size="14" lengthAdjust="spacing" textLength="93.085" x="390.9" y="651.5295">Idioma Inicial</text><text fill="#000000" font-family="sans-serif" font-size="14" lengthAdjust="spacing" textLength="120.832" x="390.9" y="667.8264">Idioma Avanzado</text><text fill="#000000" font-family="sans-serif" font-size="14" lengthAdjust="spacing" textLength="103.7217" x="390.9" y="684.1232">Extracurricular</text><line style="stroke:#555555;stroke-width:0.5;" x1="385.9" x2="516.732" y1="691.425" y2="691.425"/></g><!--class Clase--><g class="entity" data-entity="Clase" data-source-line="45" data-uid="ent0005" id="entity_Clase"><rect fill="#FDFDFD" height="227.2656" rx="2.5" ry="2.5" style="stroke:#555555;stroke-width:0.5;" width="162.4932" x="282.07" y="217.4869"/><ellipse cx="339.9909" cy="233.4869" fill="#ADD1B2" rx="11" ry="11" style="stroke:#181818;stroke-width:1;"/><path d="M342.9596,239.1275 Q342.3815,239.4244 341.7409,239.565 Q341.1003,239.7213 340.3971,239.7213 Q337.8971,239.7213 336.569,238.0806 Q335.2565,236.4244 335.2565,233.2994 Q335.2565,230.1744 336.569,228.5181 Q337.8971,226.8619 340.3971,226.8619 Q341.1003,226.8619 341.7409,227.0181 Q342.3971,227.1744 342.9596,227.4713 L342.9596,230.19 Q342.3346,229.6119 341.7409,229.3463 Q341.1471,229.065 340.5221,229.065 Q339.1784,229.065 338.4909,230.1431 Q337.8034,231.2056 337.8034,233.2994 Q337.8034,235.3931 338.4909,236.4713 Q339.1784,237.5338 340.5221,237.5338 Q341.1471,237.5338 341.7409,237.2681 Q342.3346,236.9869 342.9596,236.4088 L342.9596,239.1275 Z " fill="#000000"/><text fill="#111111" font-family="sans-serif" font-size="14" lengthAdjust="spacing" textLength="38.1514" x="360.4909" y="238.3336">Clase</text><line style="stroke:#555555;stroke-width:0.5;" x1="283.07" x2="443.5632" y1="249.4869" y2="249.4869"/><text fill="#000000" font-family="sans-serif" font-size="14" lengthAdjust="spacing" textLength="46.4844" x="288.07" y="266.482">uint ID</text><text fill="#000000" font-family="sans-serif" font-size="14" lengthAdjust="spacing" textLength="100.5703" x="288.07" y="282.7789">string Nombre</text><text fill="#000000" font-family="sans-serif" font-size="14" lengthAdjust="spacing" textLength="102.5596" x="288.07" y="299.0757">string Profesor</text><text fill="#000000" font-family="sans-serif" font-size="14" lengthAdjust="spacing" textLength="126.5811" x="288.07" y="315.3726">string Descripcion</text><text fill="#000000" font-family="sans-serif" font-size="14" lengthAdjust="spacing" textLength="110.4619" x="288.07" y="331.6695">uint ProvinciaID</text><text fill="#000000" font-family="sans-serif" font-size="14" lengthAdjust="spacing" textLength="78.8662" x="288.07" y="347.9664">float Precio</text><text fill="#000000" font-family="sans-serif" font-size="14" lengthAdjust="spacing" textLength="128.584" x="288.07" y="364.2632">Duracion duracion</text><text fill="#000000" font-family="sans-serif" font-size="14" lengthAdjust="spacing" textLength="150.4932" x="288.07" y="380.5601">Modalidad modalidad</text><text fill="#000000" font-family="sans-serif" font-size="14" lengthAdjust="spacing" textLength="73.1514" x="288.07" y="396.857">Nivel nivel</text><text fill="#000000" font-family="sans-serif" font-size="14" lengthAdjust="spacing" textLength="104.4053" x="288.07" y="413.1539">uint ProfesorID</text><text fill="#000000" font-family="sans-serif" font-size="14" lengthAdjust="spacing" textLength="130.1973" x="288.07" y="429.4507">[Materia] materias</text><line style="stroke:#555555;stroke-width:0.5;" x1="283.07" x2="443.5632" y1="436.7525" y2="436.7525"/></g><!--class Materia--><g class="entity" data-entity="Materia" data-source-line="59" data-uid="ent0006" id="entity_Materia"><rect fill="#FDFDFD" height="80.5938" rx="2.5" ry="2.5" style="stroke:#555555;stroke-width:0.5;" width="112.5703" x="553.04" y="578.0869"/><ellipse cx="580.4532" cy="594.0869" fill="#ADD1B2" rx="11" ry="11" style="stroke:#181818;stroke-width:1;"/><path d="M583.422,599.7275 Q582.8439,600.0244 582.2032,600.165 Q581.5626,600.3213 580.8595,600.3213 Q578.3595,600.3213 577.0314,598.6806 Q575.7189,597.0244 575.7189,593.8994 Q575.7189,590.7744 577.0314,589.1181 Q578.3595,587.4619 580.8595,587.4619 Q581.5626,587.4619 582.2032,587.6181 Q582.8595,587.7744 583.422,588.0713 L583.422,590.79 Q582.797,590.2119 582.2032,589.9463 Q581.6095,589.665 580.9845,589.665 Q579.6407,589.665 578.9532,590.7431 Q578.2657,591.8056 578.2657,593.8994 Q578.2657,595.9931 578.9532,597.0713 Q579.6407,598.1338 580.9845,598.1338 Q581.6095,598.1338 582.2032,597.8681 Q582.797,597.5869 583.422,597.0088 L583.422,599.7275 Z " fill="#000000"/><text fill="#111111" font-family="sans-serif" font-size="14" lengthAdjust="spacing" textLength="52.9854" x="597.2117" y="598.9336">Materia</text><line style="stroke:#555555;stroke-width:0.5;" x1="554.04" x2="664.6103" y1="610.0869" y2="610.0869"/><text fill="#000000" font-family="sans-serif" font-size="14" lengthAdjust="spacing" textLength="46.4844" x="559.04" y="627.082">uint ID</text><text fill="#000000" font-family="sans-serif" font-size="14" lengthAdjust="spacing" textLength="100.5703" x="559.04" y="643.3789">string Nombre</text><line style="stroke:#555555;stroke-width:0.5;" x1="554.04" x2="664.6103" y1="650.6806" y2="650.6806"/></g><!--class Profesor--><g class="entity" data-entity="Profesor" data-source-line="70" data-uid="ent0011" id="entity_Profesor"><rect fill="#FDFDFD" height="113.1875" rx="2.5" ry="2.5" style="stroke:#555555;stroke-width:0.5;" width="117.2393" x="727.7" y="44.2969"/><ellipse cx="754.9933" cy="60.2969" fill="#ADD1B2" rx="11" ry="11" style="stroke:#181818;stroke-width:1;"/><path d="M757.962,65.9375 Q757.3839,66.2344 756.7433,66.375 Q756.1026,66.5313 755.3995,66.5313 Q752.8995,66.5313 751.5714,64.8906 Q750.2589,63.2344 750.2589,60.1094 Q750.2589,56.9844 751.5714,55.3281 Q752.8995,53.6719 755.3995,53.6719 Q756.1026,53.6719 756.7433,53.8281 Q757.3995,53.9844 757.962,54.2813 L757.962,57 Q757.337,56.4219 756.7433,56.1563 Q756.1495,55.875 755.5245,55.875 Q754.1808,55.875 753.4933,56.9531 Q752.8058,58.0156 752.8058,60.1094 Q752.8058,62.2031 753.4933,63.2813 Q754.1808,64.3438 755.5245,64.3438 Q756.1495,64.3438 756.7433,64.0781 Q757.337,63.7969 757.962,63.2188 L757.962,65.9375 Z " fill="#000000"/><text fill="#111111" font-family="sans-serif" font-size="14" lengthAdjust="spacing" textLength="57.9209" x="771.7251" y="65.1436">Profesor</text><line style="stroke:#555555;stroke-width:0.5;" x1="728.7" x2="843.9393" y1="76.2969" y2="76.2969"/><text fill="#000000" font-family="sans-serif" font-size="14" lengthAdjust="spacing" textLength="46.4844" x="733.7" y="93.292">uint ID</text><text fill="#000000" font-family="sans-serif" font-size="14" lengthAdjust="spacing" textLength="100.5703" x="733.7" y="109.5889">string Nombre</text><text fill="#000000" font-family="sans-serif" font-size="14" lengthAdjust="spacing" textLength="73.0762" x="733.7" y="125.8857">string Mail</text><text fill="#000000" font-family="sans-serif" font-size="14" lengthAdjust="spacing" textLength="105.2393" x="733.7" y="142.1826">string Telefono</text><line style="stroke:#555555;stroke-width:0.5;" x1="728.7" x2="843.9393" y1="149.4844" y2="149.4844"/></g><!--class Titulo--><g class="entity" data-entity="Titulo" data-source-line="77" data-uid="ent0012" id="entity_Titulo"><rect fill="#FDFDFD" height="80.5938" rx="2.5" ry="2.5" style="stroke:#555555;stroke-width:0.5;" width="112.5703" x="637.04" y="290.8169"/><ellipse cx="670.6302" cy="306.8169" fill="#ADD1B2" rx="11" ry="11" style="stroke:#181818;stroke-width:1;"/><path d="M673.5989,312.4575 Q673.0208,312.7544 672.3802,312.895 Q671.7396,313.0513 671.0364,313.0513 Q668.5364,313.0513 667.2083,311.4106 Q665.8958,309.7544 665.8958,306.6294 Q665.8958,303.5044 667.2083,301.8481 Q668.5364,300.1919 671.0364,300.1919 Q671.7396,300.1919 672.3802,300.3481 Q673.0364,300.5044 673.5989,300.8013 L673.5989,303.52 Q672.9739,302.9419 672.3802,302.6763 Q671.7864,302.395 671.1614,302.395 Q669.8177,302.395 669.1302,303.4731 Q668.4427,304.5356 668.4427,306.6294 Q668.4427,308.7231 669.1302,309.8013 Q669.8177,310.8638 671.1614,310.8638 Q671.7864,310.8638 672.3802,310.5981 Q672.9739,310.3169 673.5989,309.7388 L673.5989,312.4575 Z " fill="#000000"/><text fill="#111111" font-family="sans-serif" font-size="14" lengthAdjust="spacing" textLength="39.2588" x="688.7613" y="311.6636">Titulo</text><line style="stroke:#555555;stroke-width:0.5;" x1="638.04" x2="748.6103" y1="322.8169" y2="322.8169"/><text fill="#000000" font-family="sans-serif" font-size="14" lengthAdjust="spacing" textLength="46.4844" x="643.04" y="339.812">uint ID</text><text fill="#000000" font-family="sans-serif" font-size="14" lengthAdjust="spacing" textLength="100.5703" x="643.04" y="356.1089">string Nombre</text><line style="stroke:#555555;stroke-width:0.5;" x1="638.04" x2="748.6103" y1="363.4106" y2="363.4106"/></g><!--class ProfesorDisponibilidad--><g class="entity" data-entity="ProfesorDisponibilidad" data-source-line="82" data-uid="ent0013" id="entity_ProfesorDisponibilidad"><rect fill="#FDFDFD" height="129.4844" rx="2.5" ry="2.5" style="stroke:#555555;stroke-width:0.5;" width="189.0078" x="784.82" y="266.3769"/><ellipse cx="799.82" cy="282.3769" fill="#ADD1B2" rx="11" ry="11" style="stroke:#181818;stroke-width:1;"/><path d="M802.7888,288.0175 Q802.2106,288.3144 801.57,288.455 Q800.9294,288.6113 800.2263,288.6113 Q797.7263,288.6113 796.3981,286.9706 Q795.0856,285.3144 795.0856,282.1894 Q795.0856,279.0644 796.3981,277.4081 Q797.7263,275.7519 800.2263,275.7519 Q800.9294,275.7519 801.57,275.9081 Q802.2263,276.0644 802.7888,276.3613 L802.7888,279.08 Q802.1638,278.5019 801.57,278.2363 Q800.9763,277.955 800.3513,277.955 Q799.0075,277.955 798.32,279.0331 Q797.6325,280.0956 797.6325,282.1894 Q797.6325,284.2831 798.32,285.3613 Q799.0075,286.4238 800.3513,286.4238 Q800.9763,286.4238 801.57,286.1581 Q802.1638,285.8769 802.7888,285.2988 L802.7888,288.0175 Z " fill="#000000"/><text fill="#111111" font-family="sans-serif" font-size="14" lengthAdjust="spacing" textLength="157.0078" x="813.82" y="287.2236">ProfesorDisponibilidad</text><line style="stroke:#555555;stroke-width:0.5;" x1="785.82" x2="972.8278" y1="298.3769" y2="298.3769"/><text fill="#000000" font-family="sans-serif" font-size="14" lengthAdjust="spacing" textLength="46.4844" x="790.82" y="315.372">uint ID</text><text fill="#000000" font-family="sans-serif" font-size="14" lengthAdjust="spacing" textLength="104.4053" x="790.82" y="331.6689">uint ProfesorID</text><text fill="#000000" font-family="sans-serif" font-size="14" lengthAdjust="spacing" textLength="69.7334" x="790.82" y="347.9657">uint DiaID</text><text fill="#000000" font-family="sans-serif" font-size="14" lengthAdjust="spacing" textLength="113.6953" x="790.82" y="364.2626">time HoraDesde</text><text fill="#000000" font-family="sans-serif" font-size="14" lengthAdjust="spacing" textLength="109.9766" x="790.82" y="380.5595">time HoraHasta</text><line style="stroke:#555555;stroke-width:0.5;" x1="785.82" x2="972.8278" y1="387.8613" y2="387.8613"/></g><!--class Dia--><g class="entity" data-entity="Dia" data-source-line="90" data-uid="ent0014" id="entity_Dia"><rect fill="#FDFDFD" height="80.5938" rx="2.5" ry="2.5" style="stroke:#555555;stroke-width:0.5;" width="112.5703" x="823.04" y="578.0869"/><ellipse cx="863.8346" cy="594.0869" fill="#ADD1B2" rx="11" ry="11" style="stroke:#181818;stroke-width:1;"/><path d="M866.8033,599.7275 Q866.2252,600.0244 865.5846,600.165 Q864.944,600.3213 864.2408,600.3213 Q861.7408,600.3213 860.4127,598.6806 Q859.1002,597.0244 859.1002,593.8994 Q859.1002,590.7744 860.4127,589.1181 Q861.7408,587.4619 864.2408,587.4619 Q864.944,587.4619 865.5846,587.6181 Q866.2408,587.7744 866.8033,588.0713 L866.8033,590.79 Q866.1783,590.2119 865.5846,589.9463 Q864.9908,589.665 864.3658,589.665 Q863.0221,589.665 862.3346,590.7431 Q861.6471,591.8056 861.6471,593.8994 Q861.6471,595.9931 862.3346,597.0713 Q863.0221,598.1338 864.3658,598.1338 Q864.9908,598.1338 865.5846,597.8681 Q866.1783,597.5869 866.8033,597.0088 L866.8033,599.7275 Z " fill="#000000"/><text fill="#111111" font-family="sans-serif" font-size="14" lengthAdjust="spacing" textLength="23.249" x="883.5667" y="598.9336">Dia</text><line style="stroke:#555555;stroke-width:0.5;" x1="824.04" x2="934.6103" y1="610.0869" y2="610.0869"/><text fill="#000000" font-family="sans-serif" font-size="14" lengthAdjust="spacing" textLength="46.4844" x="829.04" y="627.082">uint ID</text><text fill="#000000" font-family="sans-serif" font-size="14" lengthAdjust="spacing" textLength="100.5703" x="829.04" y="643.3789">string Nombre</text><line style="stroke:#555555;stroke-width:0.5;" x1="824.04" x2="934.6103" y1="650.6806" y2="650.6806"/></g><!--class Provincia--><g class="entity" data-entity="Provincia" data-source-line="100" data-uid="ent0018" id="entity_Provincia"><rect fill="#FDFDFD" height="80.5938" rx="2.5" ry="2.5" style="stroke:#555555;stroke-width:0.5;" width="112.5703" x="396.04" y="60.5969"/><ellipse cx="418.5067" cy="76.5969" fill="#ADD1B2" rx="11" ry="11" style="stroke:#181818;stroke-width:1;"/><path d="M421.4755,82.2375 Q420.8974,82.5344 420.2567,82.675 Q419.6161,82.8313 418.913,82.8313 Q416.413,82.8313 415.0849,81.1906 Q413.7724,79.5344 413.7724,76.4094 Q413.7724,73.2844 415.0849,71.6281 Q416.413,69.9719 418.913,69.9719 Q419.6161,69.9719 420.2567,70.1281 Q420.913,70.2844 421.4755,70.5813 L421.4755,73.3 Q420.8505,72.7219 420.2567,72.4563 Q419.663,72.175 419.038,72.175 Q417.6942,72.175 417.0067,73.2531 Q416.3192,74.3156 416.3192,76.4094 Q416.3192,78.5031 417.0067,79.5813 Q417.6942,80.6438 419.038,80.6438 Q419.663,80.6438 420.2567,80.3781 Q420.8505,80.0969 421.4755,79.5188 L421.4755,82.2375 Z " fill="#000000"/><text fill="#111111" font-family="sans-serif" font-size="14" lengthAdjust="spacing" textLength="63.9775" x="434.166" y="81.4436">Provincia</text><line style="stroke:#555555;stroke-width:0.5;" x1="397.04" x2="507.6103" y1="92.5969" y2="92.5969"/><text fill="#000000" font-family="sans-serif" font-size="14" lengthAdjust="spacing" textLength="46.4844" x="402.04" y="109.592">uint ID</text><text fill="#000000" font-family="sans-serif" font-size="14" lengthAdjust="spacing" textLength="100.5703" x="402.04" y="125.8889">string Nombre</text><line style="stroke:#555555;stroke-width:0.5;" x1="397.04" x2="507.6103" y1="133.1906" y2="133.1906"/></g><!--class Localidad--><g class="entity" data-entity="Localidad" data-source-line="105" data-uid="ent0019" id="entity_Localidad"><rect fill="#FDFDFD" height="96.8906" rx="2.5" ry="2.5" style="stroke:#555555;stroke-width:0.5;" width="122.4619" x="479.09" y="282.6769"/><ellipse cx="504.7498" cy="298.6769" fill="#ADD1B2" rx="11" ry="11" style="stroke:#181818;stroke-width:1;"/><path d="M507.7186,304.3175 Q507.1404,304.6144 506.4998,304.755 Q505.8592,304.9113 505.1561,304.9113 Q502.6561,304.9113 501.3279,303.2706 Q500.0154,301.6144 500.0154,298.4894 Q500.0154,295.3644 501.3279,293.7081 Q502.6561,292.0519 505.1561,292.0519 Q505.8592,292.0519 506.4998,292.2081 Q507.1561,292.3644 507.7186,292.6613 L507.7186,295.38 Q507.0936,294.8019 506.4998,294.5363 Q505.9061,294.255 505.2811,294.255 Q503.9373,294.255 503.2498,295.3331 Q502.5623,296.3956 502.5623,298.4894 Q502.5623,300.5831 503.2498,301.6613 Q503.9373,302.7238 505.2811,302.7238 Q505.9061,302.7238 506.4998,302.4581 Q507.0936,302.1769 507.7186,301.5988 L507.7186,304.3175 Z " fill="#000000"/><text fill="#111111" font-family="sans-serif" font-size="14" lengthAdjust="spacing" textLength="66.7734" x="521.1187" y="303.5236">Localidad</text><line style="stroke:#555555;stroke-width:0.5;" x1="480.09" x2="600.5519" y1="314.6769" y2="314.6769"/><text fill="#000000" font-family="sans-serif" font-size="14" lengthAdjust="spacing" textLength="46.4844" x="485.09" y="331.672">uint ID</text><text fill="#000000" font-family="sans-serif" font-size="14" lengthAdjust="spacing" textLength="100.5703" x="485.09" y="347.9689">string Nombre</text><text fill="#000000" font-family="sans-serif" font-size="14" lengthAdjust="spacing" textLength="110.4619" x="485.09" y="364.2657">uint ProvinciaID</text><line style="stroke:#555555;stroke-width:0.5;" x1="480.09" x2="600.5519" y1="371.5675" y2="371.5675"/></g><!--link Clase to Materia--><g class="link" data-entity-1="Clase" data-entity-2="Materia" data-source-line="64" data-uid="lnk7" id="link_Clase_Materia"><path codeLine="64" d="M444.82,421.0169 C505.29,421.0169 577.29,421.0169 577.29,421.0169 C577.29,421.0169 577.29,520.2269 577.29,577.9669" fill="none" id="Clase-Materia" style="stroke:#555555;stroke-width:1;"/><text fill="#000000" font-family="sans-serif" font-size="13" lengthAdjust="spacing" textLength="9.7246" x="452.5119" y="425.4282">N</text><text fill="#000000" font-family="sans-serif" font-size="13" lengthAdjust="spacing" textLength="9.7246" x="562.2989" y="567.1085">N</text></g><!--link Clase to Duracion--><g class="link" data-entity-1="Clase" data-entity-2="Duracion" data-source-line="65" data-uid="lnk8" id="link_Clase_Duracion"><path codeLine="65" d="M304.64,445.1969 C304.64,485.9669 304.64,522.0169 304.64,522.0169 C304.64,522.0169 229.78,522.0169 167.93,522.0169" fill="none" id="Clase-Duracion" style="stroke:#555555;stroke-width:1;"/><text fill="#000000" font-family="sans-serif" font-size="13" lengthAdjust="spacing" textLength="9.7246" x="291.8123" y="464.6764">N</text><text fill="#000000" font-family="sans-serif" font-size="13" lengthAdjust="spacing" textLength="8.271" x="175.7424" y="509.515">1</text></g><!--link Clase to Modalidad--><g class="link" data-entity-1="Clase" data-entity-2="Modalidad" data-source-line="66" data-uid="lnk9" id="link_Clase_Modalidad"><path codeLine="66" d="M327.2,445.0669 C327.2,488.4569 327.2,535.6269 327.2,569.7869" fill="none" id="Clase-Modalidad" style="stroke:#555555;stroke-width:1;"/><text fill="#000000" font-family="sans-serif" font-size="13" lengthAdjust="spacing" textLength="9.7246" x="315.6212" y="464.9182">N</text><text fill="#000000" font-family="sans-serif" font-size="13" lengthAdjust="spacing" textLength="8.271" x="325.8111" y="558.9747">1</text></g><!--link Clase to Nivel--><g class="link" data-entity-1="Clase" data-entity-2="Nivel" data-source-line="67" data-uid="lnk10" id="link_Clase_Nivel"><path codeLine="67" d="M414.74,445.0669 C414.74,475.7669 414.74,508.3669 414.74,536.9069" fill="none" id="Clase-Nivel" style="stroke:#555555;stroke-width:1;"/><text fill="#000000" font-family="sans-serif" font-size="13" lengthAdjust="spacing" textLength="9.7246" x="408.7692" y="464.9182">N</text><text fill="#000000" font-family="sans-serif" font-size="13" lengthAdjust="spacing" textLength="8.271" x="403.2646" y="526.3328">1</text></g><!--link Profesor to Titulo--><g class="link" data-entity-1="Profesor" data-entity-2="Titulo" data-source-line="95" data-uid="lnk15" id="link_Profesor_Titulo"><path codeLine="95" d="M738.65,157.7969 C738.65,198.9469 738.65,253.5569 738.65,290.3869" fill="none" id="Profesor-Titulo" style="stroke:#555555;stroke-width:1;"/><text fill="#000000" font-family="sans-serif" font-size="13" lengthAdjust="spacing" textLength="9.7246" x="723.336" y="177.7214">N</text><text fill="#000000" font-family="sans-serif" font-size="13" lengthAdjust="spacing" textLength="9.7246" x="736.2142" y="279.7782">N</text></g><!--link Profesor to ProfesorDisponibilidad--><g class="link" data-entity-1="Profesor" data-entity-2="ProfesorDisponibilidad" data-source-line="96" data-uid="lnk16" id="link_Profesor_ProfesorDisponibilidad"><path codeLine="96" d="M814.88,157.7969 C814.88,190.5569 814.88,231.8469 814.88,265.9069" fill="none" id="Profesor-ProfesorDisponibilidad" style="stroke:#555555;stroke-width:1;"/><polygon fill="#000000" points="772.88,208.4233,775.8189,199.3782,769.9411,199.3782,772.88,208.4233" style="stroke:#000000;stroke-width:1;"/><text fill="#000000" font-family="sans-serif" font-size="13" lengthAdjust="spacing" textLength="32.9443" x="781.88" y="207.9238">tiene</text><text fill="#000000" font-family="sans-serif" font-size="13" lengthAdjust="spacing" textLength="8.271" x="809.8898" y="177.7214">1</text><text fill="#000000" font-family="sans-serif" font-size="13" lengthAdjust="spacing" textLength="9.7246" x="798.8075" y="255.4822">N</text></g><!--link ProfesorDisponibilidad to Dia--><g class="link" data-entity-1="ProfesorDisponibilidad" data-entity-2="Dia" data-source-line="97" data-uid="lnk17" id="link_ProfesorDisponibilidad_Dia"><path codeLine="97" d="M879.32,396.3069 C879.32,452.0869 879.32,530.6469 879.32,577.8369" fill="none" id="ProfesorDisponibilidad-Dia" style="stroke:#555555;stroke-width:1;"/><polygon fill="#000000" points="776.32,483.6333,779.2589,474.5882,773.3811,474.5882,776.32,483.6333" style="stroke:#000000;stroke-width:1;"/><text fill="#000000" font-family="sans-serif" font-size="13" lengthAdjust="spacing" textLength="93.355" x="785.32" y="483.1338">corresponde a</text><text fill="#000000" font-family="sans-serif" font-size="13" lengthAdjust="spacing" textLength="9.7246" x="869.8929" y="415.8765">N</text><text fill="#000000" font-family="sans-serif" font-size="13" lengthAdjust="spacing" textLength="8.271" x="870.6791" y="566.957">1</text></g><!--link Provincia to Localidad--><g class="link" data-entity-1="Provincia" data-entity-2="Localidad" data-source-line="111" data-uid="lnk20" id="link_Provincia_Localidad"><path codeLine="111" d="M493.85,141.5169 C493.85,180.8969 493.85,240.6369 493.85,282.5169" fill="none" id="Provincia-Localidad" style="stroke:#555555;stroke-width:1;"/><polygon fill="#000000" points="427.85,208.5833,430.7889,199.5382,424.9111,199.5382,427.85,208.5833" style="stroke:#000000;stroke-width:1;"/><text fill="#000000" font-family="sans-serif" font-size="13" lengthAdjust="spacing" textLength="56.2847" x="436.85" y="208.0838">contiene</text><text fill="#000000" font-family="sans-serif" font-size="13" lengthAdjust="spacing" textLength="8.271" x="491.8521" y="161.264">1</text><text fill="#000000" font-family="sans-serif" font-size="13" lengthAdjust="spacing" textLength="9.7246" x="477.7332" y="271.7033">N</text></g><!--link Provincia to Clase--><g class="link" data-entity-1="Provincia" data-entity-2="Clase" data-source-line="112" data-uid="lnk21" id="link_Provincia_Clase"><path codeLine="112" d="M420.3,141.5169 C420.3,162.8169 420.3,190.0869 420.3,217.2569" fill="none" id="Provincia-Clase" style="stroke:#555555;stroke-width:1;"/><text fill="#000000" font-family="sans-serif" font-size="13" lengthAdjust="spacing" textLength="8.271" x="406.5801" y="161.264">1</text><text fill="#000000" font-family="sans-serif" font-size="13" lengthAdjust="spacing" textLength="9.7246" x="414.6854" y="206.5532">N</text></g><!--SRC=[bLL1Rjim4Bph5OHwwAb0t3IN70eebeC8i1qZJdfeqGCZqSaY5DSWgQH9KA0VA8AY3yYnXpwZF-aByeIkA5gMJRjDAK0cPvTBxiokRC5AmLBW5vgNd1M2vP8ROMWcMOdqnXgC3ogJyzDged4cOlRq-EFRxozVdnuVVaQHkG8rvxJTRJM9jHhEAoko7DKKxWJRwRX8KCBUpWL3RI-nOp2NlC0RK1TingKHwr7PVSHe7F3ywa9ZfOe-IjJinQoedyQ6kX3QutjkE3pH6cz2-12LzMZFZUXp5BrahzO66upFHjC0ZeIgIfPMckU0ojyktjrX9QZAeeaRuCtU6j1ZbwZvoeBrDZkn89h7Ww2l7Rws2iCk347SXI48lBi8JDIuX4TOS0a5Btp6xq3RYaitdsXXXCeXMBBRrcyHPmpNL5_ttX5Ahe6xnLJa96wxf21dYdor0KiWEZ14iWAGgZTJq1xleUIQgpkgB8SDFbdIgz8QyafolKNm_Z2P3gPiSfAD-zaa6GusgD_KPBzk5Pz51SgoB7LpGnr0XJp6yboBBkBQnw3kOgamkOPvNKRBGEHu3JLvFk9C8gzHaVkCsyeh_CIXItdAnSpX3TqrRNBb37SPVyI74RU2UF_8ocPYQdwQHBtfdwdIXeQJU1mJQUx7xrqpzE8sXT3IfX6QN2ORPPkS71yEfiSdsyHQfFi_UequoExwL4WnGuLBPax1LlI9V0OngxT8mSnHmJbqkwcxVvD43alReh1G2dP43KebL8XLw8WRovV7fiyJh-Meer-JOSVKQqrRajcdQmWbsDjeYqEt2EXY-on7JLyBSg6_6axxDkaxFEudm-nzqiz-VH__HUIcRvwlo11plas4i322xcnOyuTsk5c6hTDJ7KP2NrVbVm00]--></g></svg>